<svg xmlns="http://www.w3.org/2000/svg" viewBox="0 0 64 64" fill="none">
  <rect width="64" height="64" rx="18" fill="#020617" />
  <path
    d="M18 20C18 16.6863 20.6863 14 24 14H40C43.3137 14 46 16.6863 46 20V44C46 47.3137 43.3137 50 40 50H24C20.6863 50 18 47.3137 18 44V20Z"
    fill="url(#paint0_linear)"
  />
  <path
    d="M25 22C25 19.7909 26.7909 18 29 18H35C37.2091 18 39 19.7909 39 22V24C39 26.2091 37.2091 28 35 28H29C26.7909 28 25 26.2091 25 24V22Z"
    fill="#020617"
    fill-opacity=".78"
  />
  <path
    d="M23 34C23 29.5817 26.5817 26 31 26H33C37.4183 26 41 29.5817 41 34V43H23V34Z"
    fill="#020617"
    fill-opacity=".78"
  />
  <path
    d="M17 29C17 21.8203 22.8203 16 30 16H34C41.1797 16 47 21.8203 47 29V32.5C47 33.3284 46.3284 34 45.5 34H18.5C17.6716 34 17 33.3284 17 32.5V29Z"
    fill="url(#paint1_linear)"
  />
  <defs>
    <linearGradient id="paint0_linear" x1="18" y1="14" x2="46" y2="50" gradientUnits="userSpaceOnUse">
      <stop stop-color="#22D3EE" />
      <stop offset=".55" stop-color="#38BDF8" />
      <stop offset="1" stop-color="#A855F7" />
    </linearGradient>
    <linearGradient id="paint1_linear" x1="17" y1="16" x2="47" y2="34" gradientUnits="userSpaceOnUse">
      <stop stop-color="#67E8F9" />
      <stop offset=".5" stop-color="#22D3EE" />
      <stop offset="1" stop-color="#F472B6" />
    </linearGradient>
  </defs>
</svg>
